PathFileType	4	(X/Y/Z)	RBDS017\RBDS017runT45.trc
DataRate	CameraRate	NumFrames	NumMarkers	Units	OrigDataRate	OrigDataStartFrame	OrigNumFrames
150.000000	150.000000	4	33	mm	150.000000	562	4500
Frame#	Time	L.ASIS			L.Heel.Bottom			L.Heel.Lateral			L.Heel.Top			L.Iliac.Crest			L.MT1			L.MT5			L.PSIS			L.Shank.Bottom.Lateral			L.Shank.Bottom.Medial			L.Shank.Top.Lateral			L.Shank.Top.Medial			L.Thigh.Bottom.Lateral			L.Thigh.Bottom.Medial			L.Thigh.Top.Lateral			L.Thigh.Top.Medial			R.ASIS			R.ASY			R.Heel.Bottom			R.Heel.Lateral			R.Heel.Top			R.Iliac.Crest			R.MT1			R.MT5			R.PSIS			R.Shank.Bottom.Lateral			R.Shank.Bottom.Medial			R.Shank.Top.Lateral			R.Shank.Top.Medial			R.Thigh.Bottom.Lateral			R.Thigh.Bottom.Medial			R.Thigh.Top.Lateral			R.Thigh.Top.Medial			
		X1	Y1	Z1	X2	Y2	Z2	X3	Y3	Z3	X4	Y4	Z4	X5	Y5	Z5	X6	Y6	Z6	X7	Y7	Z7	X8	Y8	Z8	X9	Y9	Z9	X10	Y10	Z10	X11	Y11	Z11	X12	Y12	Z12	X13	Y13	Z13	X14	Y14	Z14	X15	Y15	Z15	X16	Y16	Z16	X17	Y17	Z17	X18	Y18	Z18	X19	Y19	Z19	X20	Y20	Z20	X21	Y21	Z21	X22	Y22	Z22	X23	Y23	Z23	X24	Y24	Z24	X25	Y25	Z25	X26	Y26	Z26	X27	Y27	Z27	X28	Y28	Z28	X29	Y29	Z29	X30	Y30	Z30	X31	Y31	Z31	X32	Y32	Z32	X33	Y33	Z33	

563	3.746666666666667	2209.676679655914	1058.940832112366	898.3078864655705	2352.466382533499	38.57463280120918	997.7961295654088	2363.454279253457	52.849021963355	955.1088442094787	2347.953232484339	83.35048254642487	990.1747946242158	2128.39688706376	1154.802542561602	864.0671335960338	2566.044018606585	117.8656507327287	988.6004844889339	2522.75061931251	70.61926268631593	894.2982490936193	2046.714253183699	1120.731569172989	996.7338303829965	2365.844827854289	209.0110283419556	917.0943861175684	2330.999467561734	200.7749671460834	959.3077861443104	2334.173628071397	282.2909414770552	905.0794184480866	2299.298265237103	274.6369858478587	945.7358914288193	2250.5671007646	679.6652177258218	867.0063081525299	2198.689486798831	653.9023232805292	909.816865459238	2194.943421223399	774.2752969527827	858.806980318049	2145.225178224817	750.8254476552407	899.0730164210826	2221.304648336407	1045.16132081	1179.816358916577	1489.187602626766	440.5510986064066	1120.007026109915	1545.868886248451	635.240456120521	1072.7558897452	1542.338137212375	614.6808450341141	1121.245281354107	1579.696156827028	605.8641513723435	1090.051393834405	2187.137254964869	1149.195499857218	1210.394702619491	1462.039779830003	424.1752772121408	1069.567128369639	1441.153349935242	487.0348571527898	1164.108284336738	2058.468456576279	1122.505116546494	1097.970105601131	1646.994205240828	557.9997835391428	1160.766557040214	1650.44591901777	592.0096764805799	1122.808384934875	1729.59689473875	569.427125079042	1176.620841677784	1728.401130477675	606.5475386545281	1138.720496446351	2029.839761963123	666.2091198542215	1207.800038002336	1976.90507755587	677.5284999790263	1157.974099114287	2041.701770252211	774.7643181930387	1215.097086429972	1991.590316199681	786.0196199219196	1167.942618752103	
564	3.753333333333333	2209.226700470865	1054.58920296205	897.9353859207185	2334.779305076401	35.40969005727429	998.110743602594	2346.579945836957	49.95432619630466	955.82353651167	2332.397821332501	80.21227910675124	991.4877223820188	2127.120543516212	1149.569724981772	864.1088513970853	2551.065101905142	105.9942541323951	990.7879556514462	2506.415214273895	63.08642706858503	895.2808645241749	2046.029996132101	1115.291457014635	997.8388788397755	2355.242634559043	203.1397690624374	918.439511341525	2319.549244579768	196.0406357091999	959.9569835986715	2325.979876101352	277.1054240290915	905.8024116161811	2290.354214017915	270.6042255890765	945.8557743729841	2249.638119412868	675.3706355288082	867.4742322398168	2197.524861591619	649.4946273489707	909.8381833332917	2193.992260858759	769.9682688252262	859.1523769675689	2144.134511283949	746.4089156293638	899.1026418291777	2221.69427792603	1040.746822853385	1179.642865208662	1498.692736241147	455.5564331398496	1119.880327694792	1564.103138603927	647.7242032526298	1071.812190778737	1559.473253242976	627.5164902988356	1120.588553843751	1596.631599616257	616.7975091350294	1089.580055938442	2187.107249579616	1143.806136499776	1211.11237219699	1471.060351300136	440.230091451562	1069.472159920334	1452.698470905304	504.5332406318769	1163.590108735129	2058.181434706303	1116.579909768215	1099.118108249869	1661.191566151973	566.0115596382082	1160.981593473147	1666.457387944883	599.61732064661	1122.91201817086	1744.073560744332	573.4673621521175	1177.269269064853	1744.891798031954	610.3858893871992	1139.206037690115	2037.643237502927	658.4376269835894	1209.884330605272	1984.863520553674	667.9764095031014	1159.52193494584	2046.822343366947	767.3213816974035	1216.281755880079	1996.796978114966	776.9195720041043	1168.701851207063	
565	3.76	2208.620353718177	1049.887234597777	897.6738850232653	2313.929956711454	32.84721356528429	998.729766619669	2326.616141461234	47.82367898920592	956.9680633715833	2313.943063237553	77.65797757804927	993.3884831402481	2125.990906487093	1143.939688433573	864.0562718478411	2533.190042913971	93.80017322203362	993.4494203264599	2487.004552691616	55.96591568543258	896.5589649589251	2045.186131945284	1109.778470300895	998.8603962809553	2342.79859076721	197.4967627996373	920.3890802057729	2306.086586667752	191.9492683121451	961.0140135884595	2316.58196904743	272.2277969428775	906.9119915462315	2280.053133303334	267.2971891510683	946.1764497138884	2249.195113451893	671.3948740304942	867.9158295845241	2196.80845924407	645.2154388976215	909.703844405322	2193.201864520541	765.7988605633077	859.4065993795991	2143.231000576276	741.9588457719185	898.9814368184364	2221.935413720039	1035.79243094331	1179.354092390965	1510.188865280882	469.0645820422336	1119.86263998343	1583.351143703607	658.4457443721419	1071.261620211499	1577.771595338609	638.5793805153417	1120.199969155142	1614.621044103749	626.1895195474151	1089.379462514396	2187.557943462612	1137.688022421249	1211.587977541161	1482.136859062354	454.7735305439155	1069.502571082422	1466.222698570964	520.1788171465355	1163.366511112485	2057.66869431587	1110.411172418019	1100.16736296857	1676.637905796968	572.8276352023507	1161.389705463892	1683.627872761701	605.9489608869261	1123.189493353394	1759.627313550337	576.4719489837507	1178.079609865238	1762.370533504339	613.087649438525	1139.841623112748	2045.950751634738	650.48818765753	1212.104338164497	1993.238057858976	658.1488195809073	1161.348316594849	2052.270911182742	759.6701082227289	1217.567819676825	2002.29420374765	767.4998013159804	1169.632210311118	
566	3.766666666666667	2207.78096778915	1044.870304950315	897.4554101339884	2290.46043259271	30.96609121426779	999.6521763857166	2304.054047874214	46.54056092831466	958.531845477262	2292.984961691763	75.75237745648693	995.8395878987685	2125.001657549061	1137.932661064087	863.895498510279	2512.718318934826	81.98505227351981	996.4578942987953	2464.926651703693	49.70499294721036	898.0908047814951	2044.127040763723	1104.301274422875	999.8045789625741	2328.67979734996	192.3150763750065	922.9257539399287	2290.826940550628	188.689150922862	962.4749218507678	2306.057426044492	267.8217149140697	908.4298773369902	2268.516953520722	264.8300531981744	946.7273705624641	2249.021491678398	667.7113473888877	868.3253198096413	2196.348158899145	641.1082200846859	909.4897303982858	2192.436448339477	761.7943598205871	859.564324770473	2142.384988269444	737.5612970543167	898.751253368738	2221.990482048427	1030.336625434879	1178.921629402249	1523.463171300633	480.9315566117747	1119.886466582251	1603.466312637956	667.4434144071602	1071.239561625283	1597.062393948202	647.8305362054607	1120.182199923139	1633.534634380707	634.0395539527652	1089.560803264321	2188.415177320621	1130.919403134478	1211.793886853218	1495.044711775829	467.7175560955712	1069.570743621973	1481.445822748371	533.7947140495019	1163.402179945056	2056.882685571245	1104.118912656185	1101.085880342064	1693.212349464905	578.3858924774574	1162.030994923659	1701.814356244715	610.9925588222437	1123.702560253181	1776.171058220287	578.4241488433794	1179.075087561294	1780.71941729346	614.6831820366544	1140.676890748337	2054.856454771838	642.5157691431825	1214.392114005289	2002.092276455441	648.2117484513063	1163.440859313231	2058.131151372052	751.9476066746948	1218.928175494129	2008.142052464931	757.9099023573701	1170.749310011551	
